
<svg xmlns="http://www.w3.org/2000/svg" xmlns:xlink="http://www.w3.org/1999/xlink">
    <defs>
        <linearGradient x1="50%" y1="41.53%" x2="50%" y2="100%" id="3nvgtwh45c">
            <stop stop-color="#A5C9FF" stop-opacity=".485" offset="0%"/>
            <stop stop-color="#6C99FF" offset="100%"/>
        </linearGradient>
        <linearGradient x1="50%" y1="0%" x2="50%" y2="100%" id="h32ksyp5xd">
            <stop stop-color="#FFF" offset="0%"/>
            <stop stop-color="#C7DCFF" stop-opacity="0" offset="100%"/>
        </linearGradient>
        <linearGradient x1="50%" y1="0%" x2="50%" y2="100%" id="pabi03lpre">
            <stop stop-color="#FFF" offset="0%"/>
            <stop stop-color="#C7DCFF" stop-opacity="0" offset="100%"/>
        </linearGradient>
        <linearGradient x1="46.578%" y1="-22.748%" x2="50%" y2="99.063%" id="f34nu193lf">
            <stop stop-color="#4482FF" offset="0%"/>
            <stop stop-color="#80A6FF" stop-opacity="0" offset="100%"/>
        </linearGradient>
        <linearGradient x1="37.311%" y1="43.297%" x2="37.311%" y2="-47.385%" id="4idmci077g">
            <stop stop-color="#53A0FF" offset="0%"/>
            <stop stop-color="#2A6CF3" offset="100%"/>
        </linearGradient>
        <linearGradient x1="50%" y1="-57.349%" x2="50%" y2="109.877%" id="zds6nuy79h">
            <stop stop-color="#5595FF" offset="0%"/>
            <stop stop-color="#1250CD" offset="100%"/>
        </linearGradient>
        <path id="iftytqn64a" d="M0 0h360v140H0z"/>
        <path id="paxlthb23i" d="M0 0h86.349v35.281H0z"/>
        <path id="tw9twrbaik" d="M0 0h34.82v3.686H0z"/>
    </defs>
    <g fill="none" fill-rule="evenodd">
        <mask id="spr5rew4yb" fill="#fff">
            <use xlink:href="#iftytqn64a"/>
        </mask>
        <use fill="#EBF1FF" xlink:href="#iftytqn64a"/>
        <path d="M225-122c67.931 0 123 55.069 123 123s-55.069 123-123 123S102 68.931 102 1s55.069-123 123-123zm0 38c-46.944 0-85 38.056-85 85s38.056 85 85 85 85-38.056 85-85-38.056-85-85-85z" fill="#FFF" opacity=".401" mask="url(#spr5rew4yb)"/>
        <g mask="url(#spr5rew4yb)" fill="#6191FC">
            <path d="m302.258 74.6-24.796 16.85h24.796"/>
            <path d="m302.082 74.6 24.797 16.85h-24.797M300.5 89.343h1.407v34.58H300.5z"/>
        </g>
        <text mask="url(#spr5rew4yb)" font-family="Roboto-Bold, Roboto" font-size="16" font-weight="bold" fill="#002F34"><tspan x="16" y="35">¿Te gusta este auto?</tspan><tspan x="16" y="53">¡Resérvalo para que </tspan><tspan x="16" y="71">no te lo ganen!</tspan></text>
        <path fill="url(#3nvgtwh45c)" mask="url(#spr5rew4yb)" transform="matrix(-1 0 0 1 528.544 0)" d="M263.393 93.732h1.759v31.595h-1.759z"/>
        <path d="m297.313 21.05 108.156 5.307a3.166 3.166 0 0 1 3.01 3.162v17.165a3.166 3.166 0 0 1-3.165 3.166H297.158a3.166 3.166 0 0 1-3.165-3.166V24.212a3.166 3.166 0 0 1 3.32-3.161z" fill="#4052B6" mask="url(#spr5rew4yb)"/>
        <path fill="#6C99FF" mask="url(#spr5rew4yb)" d="M309.645 49.674h114.487v73.722H309.645z"/>
        <g opacity=".563" mask="url(#spr5rew4yb)" stroke="#6191FC" stroke-width=".938">
            <path d="m286.782 109.178 2.428 7.723h7.597M288.365 123.396l.899-6.495h7.129l1.117 6.495"/>
        </g>
        <path fill="#C7DCFF" mask="url(#spr5rew4yb)" d="M326 60.206h81.776v63.19H326z"/>
        <path fill="url(#h32ksyp5xd)" mask="url(#spr5rew4yb)" d="M344.29 60.206 326 81.708v11.673l27.083-33.175z"/>
        <path fill="url(#pabi03lpre)" mask="url(#spr5rew4yb)" d="m357.48 60.206-21.456 26.943 4.22.088 20.225-27.031z"/>
        <path fill="#6C99FF" mask="url(#spr5rew4yb)" d="M259.348 123.396h117v3.511h-117z"/>
        <path fill="#4052B6" opacity=".5" mask="url(#spr5rew4yb)" d="M309.645 49.674h57.331v4.037h-57.331z"/>
        <g fill="#C7DCFF">
            <path d="M310.018 44.408h2.032v-8.951h-2.032zM305.154 41.308c-.632 0-1.144-.5-1.144-1.117 0-.616.512-1.117 1.144-1.117.632 0 1.144.5 1.144 1.117s-.512 1.117-1.144 1.117m0-4.802c-2.085 0-3.775 1.65-3.775 3.685 0 2.036 1.69 3.686 3.775 3.686s3.775-1.65 3.775-3.686c0-2.035-1.69-3.685-3.775-3.685M317.383 37.952h-1.444l-.848.828-.848-.828H312.8v1.434l.835.815-.835.816v1.414h1.464l.827-.808.827.808h1.465v-1.414l-.836-.816.836-.815z"/>
        </g>
        <path d="M277.638 38.177c-10.67 4.154-16.004 9.274-16.004 15.359l1.495 47.831h15.036c-2.11-10.122-2.726-17.465-1.846-22.029.879-4.563 1.319-18.284 1.319-41.16z" fill="url(#f34nu193lf)"/>
        <g transform="translate(210.668 53.978)">
            <ellipse fill="#FFF" cx="17.938" cy="17.904" rx="17.938" ry="17.904"/>
            <path d="m22.686 7.021-.804 2.25h-2.367v2.138H16.24l-.001-2.138h-3.05v-.976c0-.703.571-1.274 1.275-1.274h8.222z" fill="#316CEF"/>
            <path d="M27.259 19.571c0 5.186-4.212 9.391-9.409 9.391-5.196 0-9.409-4.205-9.409-9.39 0-5.187 4.213-9.391 9.41-9.391 5.196 0 9.408 4.204 9.408 9.39" fill="#1D3C80"/>
            <path d="M9.499 19.835c-3.983-.001-7.212-3.224-7.213-7.199 0-3.975 3.227-7.196 7.21-7.195 3.982.001 7.21 3.224 7.211 7.199 0 3.974-3.226 7.195-7.208 7.195z" fill="url(#4idmci077g)" transform="translate(8.441 7.021)"/>
            <path d="M9.497 19.835c-3.981-.001-7.21-3.224-7.21-7.199-.002-3.975 3.225-7.196 7.207-7.195l.003 14.394z" fill="url(#zds6nuy79h)" transform="translate(8.441 7.021)"/>
            <path d="M17.938 23.696a4.041 4.041 0 0 0 4.045-4.037h-4.045v-4.037a4.041 4.041 0 0 0-4.045 4.037c0 2.23 1.811 4.037 4.045 4.037z" fill="#FFCE33"/>
        </g>
        <path d="M222.646 127.082H115.38a1.584 1.584 0 0 1-1.588-1.58c0-.872.711-1.58 1.588-1.58h107.266c.877 0 1.588.708 1.588 1.58 0 .873-.711 1.58-1.588 1.58" fill="#6B79C7"/>
        <path d="M213.506 116.463c0 4.314-3.503 7.81-7.825 7.81s-7.827-3.496-7.827-7.81 3.505-7.812 7.827-7.812 7.825 3.498 7.825 7.812M163.385 116.287c0 4.314-3.503 7.81-7.826 7.81-4.322 0-7.825-3.496-7.825-7.81s3.503-7.811 7.825-7.811c4.323 0 7.826 3.497 7.826 7.81" fill="#042F34"/>
        <path d="m226.824 116.394-4.679 2.824-100.575.14-2.268-4.526v-11.215c0-1.524-1.932-3.03-1.359-4.716l8.006-10.444c1.084-1.9 3.29-3.31 5.718-3.31l26.283-.718 22.094.224c1.621 0 5.596.512 6.758 1.642l16.2 10.26 13.375 5.055a9.805 9.805 0 0 1 6.148 5.75l4.347 8.554" fill="#FECD45"/>
        <path fill="#36E4DA" d="m129.244 115.379 107.804.587"/>
        <g transform="translate(115.727 84.429)">
            <mask id="2t7n0l3foj" fill="#fff">
                <use xlink:href="#paxlthb23i"/>
            </mask>
            <path d="M58.69 12.903 44.45 2.14C43.316 1.01 40.46 0 38.88 0L10.388.614c-2.366 0-4.567 1.614-5.558 3.82C1.61 11.043 0 14.721 0 15.467v16.565l4.769 2.872 75.082.377 6.498-3.647-4.093-8.02c-.885-3.239-5.923-3.59-7.163-4.533L58.69 12.903z" fill="#CC8617" mask="url(#2t7n0l3foj)"/>
        </g>
        <path d="M140.347 117.604c0 5.04-4.094 9.127-9.145 9.127-5.05 0-9.144-4.086-9.144-9.127s4.094-9.128 9.144-9.128 9.145 4.087 9.145 9.128M188.885 116.901c0 5.138-4.172 9.303-9.32 9.303-5.147 0-9.321-4.165-9.321-9.303 0-5.138 4.174-9.303 9.32-9.303 5.149 0 9.321 4.165 9.321 9.303" fill="#042F34"/>
        <path d="M181.675 116.375a2.635 2.635 0 0 1-2.638 2.633 2.635 2.635 0 0 1-2.638-2.633 2.635 2.635 0 0 1 2.638-2.633 2.635 2.635 0 0 1 2.638 2.633" fill="#F8FAD1"/>
        <path d="M135.423 117.779a4.217 4.217 0 0 1-4.22 4.213 4.216 4.216 0 0 1-4.221-4.213 4.216 4.216 0 0 1 4.22-4.213 4.217 4.217 0 0 1 4.221 4.213" fill="#CDF"/>
        <path d="m130.665 97.769 43.624-.578-13.712-10.064a6.544 6.544 0 0 0-4.57-1.641l-23.333.34c-1.582.056-4.885-.08-7.234.448-1.474.331-2.396 1.043-2.094 2.523l2.444 6.714c0 1.342 3.735 2.268 4.875 2.258M176.472 96.891l26.658-.292-16.027-10.28-26.18-.486z" fill="#042F34"/>
        <path d="M173.21 97.944V95.12c0-.96.766-1.738 1.712-1.738h4.997l4.722 3.74s-10.932.316-11.432.823" fill="#EDA215"/>
        <g transform="translate(192.403 115.848)">
            <mask id="0bov1j4vxl" fill="#fff">
                <use xlink:href="#tw9twrbaik"/>
            </mask>
            <path fill="#CC8617" mask="url(#0bov1j4vxl)" d="m8 0 26.82.098-5.01 3.039L0 3.687z"/>
        </g>
        <path d="m177.103 85.872-3.82 8.386-12.36-8.42s10.75-.025 16.18.034" fill="#C8DDFE"/>
        <path d="M115.55 100.577h2.457c.877 0 1.589.749 1.589 1.672v.167c0 .923-.712 1.672-1.59 1.672h-2.455v-3.51z" fill="#A8173F"/>
        <path d="M213.217 106.545h-3.99s1.96 3.229 6.859 3.159l-2.869-3.159z" fill="#FFD13A"/>
        <path d="M117.837 95.875s0 5.25 3.705 5.478c3.705.229 51.868 0 51.868 0l-10.42-1.887-40.985.061s-4.863-.913-2.78-6.849M148.73 106.72s9.213.39 9.497 9.655c0 0-2.126-7.774-9.497-9.654M197.268 105.668s9.725.432 10.024 10.707c0 0-2.244-8.623-10.024-10.707" fill="#FECD45"/>
        <path fill="#CCF7EE" d="m196.272 106.277 25.532-.434 2.254 3.037-24.933.65z"/>
    </g>
</svg>
